<?xml version="1.0" encoding="UTF-8" standalone="no"?>
<!DOCTYPE svg PUBLIC "-//W3C//DTD SVG 1.1//EN"
 "http://www.w3.org/Graphics/SVG/1.1/DTD/svg11.dtd">
<!-- Generated by graphviz version 2.36.0 (20140111.2315)
 -->
<!-- Title: controllers_diagram Pages: 1 -->
<svg width="357pt" height="402pt"
 viewBox="0.00 0.00 357.00 402.00" xmlns="http://www.w3.org/2000/svg" xmlns:xlink="http://www.w3.org/1999/xlink">
<g id="graph0" class="graph" transform="scale(1 1) rotate(0) translate(4 398)">
<title>controllers_diagram</title>
<polygon fill="none" stroke="none" points="-4,4 -4,-398 353,-398 353,4 -4,4"/>
<!-- _diagram_info -->
<g id="node1" class="node"><title>_diagram_info</title>
<text text-anchor="start" x="143" y="-123.6" font-family="Times,serif" font-size="13.00">Controllers diagram</text>
<text text-anchor="start" x="143" y="-109.6" font-family="Times,serif" font-size="13.00">Date: Jun 21 2018 &#45; 13:07</text>
<text text-anchor="start" x="143" y="-95.6" font-family="Times,serif" font-size="13.00">Migration version: 20180614055730</text>
<text text-anchor="start" x="143" y="-81.6" font-family="Times,serif" font-size="13.00">Generated by RailRoady 1.5.3</text>
<text text-anchor="start" x="143" y="-67.6" font-family="Times,serif" font-size="13.00">http://railroady.prestonlee.com</text>
</g>
<!-- ApplicationController -->
<g id="node2" class="node"><title>ApplicationController</title>
<path fill="none" stroke="black" d="M147,-165.5C147,-165.5 317,-165.5 317,-165.5 323,-165.5 329,-171.5 329,-177.5 329,-177.5 329,-246.5 329,-246.5 329,-252.5 323,-258.5 317,-258.5 317,-258.5 147,-258.5 147,-258.5 141,-258.5 135,-252.5 135,-246.5 135,-246.5 135,-177.5 135,-177.5 135,-171.5 141,-165.5 147,-165.5"/>
<text text-anchor="middle" x="232" y="-243.3" font-family="Times,serif" font-size="14.00">ApplicationController</text>
<polyline fill="none" stroke="black" points="135,-235.5 329,-235.5 "/>
<polyline fill="none" stroke="black" points="135,-211.5 329,-211.5 "/>
<text text-anchor="start" x="143" y="-196.3" font-family="Times,serif" font-size="14.00">configure_permitted_parameters</text>
<polyline fill="none" stroke="black" points="135,-188.5 329,-188.5 "/>
<text text-anchor="start" x="143" y="-173.3" font-family="Times,serif" font-size="14.00">_layout</text>
</g>
<!-- AdminController -->
<g id="node3" class="node"><title>AdminController</title>
<path fill="none" stroke="black" d="M12,-240.5C12,-240.5 98,-240.5 98,-240.5 104,-240.5 110,-246.5 110,-252.5 110,-252.5 110,-336.5 110,-336.5 110,-342.5 104,-348.5 98,-348.5 98,-348.5 12,-348.5 12,-348.5 6,-348.5 0,-342.5 0,-336.5 0,-336.5 0,-252.5 0,-252.5 0,-246.5 6,-240.5 12,-240.5"/>
<text text-anchor="middle" x="55" y="-333.3" font-family="Times,serif" font-size="14.00">AdminController</text>
<polyline fill="none" stroke="black" points="0,-325.5 110,-325.5 "/>
<text text-anchor="start" x="8" y="-310.3" font-family="Times,serif" font-size="14.00">report</text>
<text text-anchor="start" x="8" y="-295.3" font-family="Times,serif" font-size="14.00">unreport</text>
<polyline fill="none" stroke="black" points="0,-287.5 110,-287.5 "/>
<polyline fill="none" stroke="black" points="0,-263.5 110,-263.5 "/>
<text text-anchor="start" x="8" y="-248.3" font-family="Times,serif" font-size="14.00">_layout</text>
</g>
<!-- ReplyController -->
<g id="node4" class="node"><title>ReplyController</title>
<path fill="none" stroke="black" d="M252,-285.5C252,-285.5 332,-285.5 332,-285.5 338,-285.5 344,-291.5 344,-297.5 344,-297.5 344,-381.5 344,-381.5 344,-387.5 338,-393.5 332,-393.5 332,-393.5 252,-393.5 252,-393.5 246,-393.5 240,-387.5 240,-381.5 240,-381.5 240,-297.5 240,-297.5 240,-291.5 246,-285.5 252,-285.5"/>
<text text-anchor="middle" x="292" y="-378.3" font-family="Times,serif" font-size="14.00">ReplyController</text>
<polyline fill="none" stroke="black" points="240,-370.5 344,-370.5 "/>
<text text-anchor="start" x="248" y="-355.3" font-family="Times,serif" font-size="14.00">create</text>
<text text-anchor="start" x="248" y="-340.3" font-family="Times,serif" font-size="14.00">destroy</text>
<polyline fill="none" stroke="black" points="240,-332.5 344,-332.5 "/>
<polyline fill="none" stroke="black" points="240,-308.5 344,-308.5 "/>
<text text-anchor="start" x="248" y="-293.3" font-family="Times,serif" font-size="14.00">_layout</text>
</g>
<!-- PostController -->
<g id="node5" class="node"><title>PostController</title>
<path fill="none" stroke="black" d="M27,-0.5C27,-0.5 98,-0.5 98,-0.5 104,-0.5 110,-6.5 110,-12.5 110,-12.5 110,-201.5 110,-201.5 110,-207.5 104,-213.5 98,-213.5 98,-213.5 27,-213.5 27,-213.5 21,-213.5 15,-207.5 15,-201.5 15,-201.5 15,-12.5 15,-12.5 15,-6.5 21,-0.5 27,-0.5"/>
<text text-anchor="middle" x="62.5" y="-198.3" font-family="Times,serif" font-size="14.00">PostController</text>
<polyline fill="none" stroke="black" points="15,-190.5 110,-190.5 "/>
<text text-anchor="start" x="23" y="-175.3" font-family="Times,serif" font-size="14.00">create</text>
<text text-anchor="start" x="23" y="-160.3" font-family="Times,serif" font-size="14.00">destroy</text>
<text text-anchor="start" x="23" y="-145.3" font-family="Times,serif" font-size="14.00">edit</text>
<text text-anchor="start" x="23" y="-130.3" font-family="Times,serif" font-size="14.00">index</text>
<text text-anchor="start" x="23" y="-115.3" font-family="Times,serif" font-size="14.00">new</text>
<text text-anchor="start" x="23" y="-100.3" font-family="Times,serif" font-size="14.00">search</text>
<text text-anchor="start" x="23" y="-85.3" font-family="Times,serif" font-size="14.00">show</text>
<text text-anchor="start" x="23" y="-70.3" font-family="Times,serif" font-size="14.00">signal</text>
<text text-anchor="start" x="23" y="-55.3" font-family="Times,serif" font-size="14.00">update</text>
<polyline fill="none" stroke="black" points="15,-47.5 110,-47.5 "/>
<polyline fill="none" stroke="black" points="15,-23.5 110,-23.5 "/>
<text text-anchor="start" x="23" y="-8.3" font-family="Times,serif" font-size="14.00">_layout</text>
</g>
</g>
</svg>
