<?xml version="1.0" encoding="UTF-8" standalone="no"?>
<!DOCTYPE svg PUBLIC "-//W3C//DTD SVG 1.1//EN"
 "http://www.w3.org/Graphics/SVG/1.1/DTD/svg11.dtd">
<!-- Generated by graphviz version 2.36.0 (20140111.2315)
 -->
<!-- Title: models_diagram Pages: 1 -->
<svg width="332pt" height="302pt"
 viewBox="0.00 0.00 332.00 302.00" xmlns="http://www.w3.org/2000/svg" xmlns:xlink="http://www.w3.org/1999/xlink">
<g id="graph0" class="graph" transform="scale(1 1) rotate(0) translate(4 298)">
<title>models_diagram</title>
<polygon fill="none" stroke="none" points="-4,4 -4,-298 328,-298 328,4 -4,4"/>
<!-- _diagram_info -->
<g id="node1" class="node"><title>_diagram_info</title>
<text text-anchor="start" x="8" y="-279.6" font-family="Times,serif" font-size="13.00">Models diagram</text>
<text text-anchor="start" x="8" y="-265.6" font-family="Times,serif" font-size="13.00">Date: Jun 21 2018 &#45; 13:07</text>
<text text-anchor="start" x="8" y="-251.6" font-family="Times,serif" font-size="13.00">Migration version: 20180614055730</text>
<text text-anchor="start" x="8" y="-237.6" font-family="Times,serif" font-size="13.00">Generated by RailRoady 1.5.3</text>
<text text-anchor="start" x="8" y="-223.6" font-family="Times,serif" font-size="13.00">http://railroady.prestonlee.com</text>
</g>
<!-- User -->
<g id="node2" class="node"><title>User</title>
<ellipse fill="none" stroke="black" cx="293" cy="-162" rx="26.949" ry="18"/>
<text text-anchor="middle" x="293" y="-158.3" font-family="Times,serif" font-size="14.00">User</text>
</g>
<!-- Post -->
<g id="node3" class="node"><title>Post</title>
<ellipse fill="none" stroke="black" cx="238" cy="-90" rx="27" ry="18"/>
<text text-anchor="middle" x="238" y="-86.3" font-family="Times,serif" font-size="14.00">Post</text>
</g>
<!-- User&#45;&gt;Post -->
<g id="edge1" class="edge"><title>User&#45;&gt;Post</title>
<path fill="none" stroke="#4d4bd7" d="M276.036,-139.409C269.756,-131.417 262.613,-122.325 256.225,-114.196"/>
<ellipse fill="none" stroke="#4d4bd7" cx="278.595" cy="-142.666" rx="4.00002" ry="4.00002"/>
<polygon fill="#4d4bd7" stroke="#4d4bd7" points="256.089,-114.023 253.449,-103.379 253,-110.091 249.911,-106.159 249.911,-106.159 249.911,-106.159 253,-110.091 246.372,-108.94 256.089,-114.023 256.089,-114.023"/>
</g>
<!-- Reply -->
<g id="node5" class="node"><title>Reply</title>
<ellipse fill="none" stroke="black" cx="293" cy="-18" rx="31.2735" ry="18"/>
<text text-anchor="middle" x="293" y="-14.3" font-family="Times,serif" font-size="14.00">Reply</text>
</g>
<!-- User&#45;&gt;Reply -->
<g id="edge2" class="edge"><title>User&#45;&gt;Reply</title>
<path fill="none" stroke="#0b26c5" d="M293,-135.558C293,-110.444 293,-72.164 293,-46.3932"/>
<ellipse fill="none" stroke="#0b26c5" cx="293" cy="-139.871" rx="4" ry="4"/>
<polygon fill="#0b26c5" stroke="#0b26c5" points="293,-46.1893 297.5,-36.1892 293,-41.1893 293,-36.1893 293,-36.1893 293,-36.1893 293,-41.1893 288.5,-36.1893 293,-46.1893 293,-46.1893"/>
</g>
<!-- Post&#45;&gt;Reply -->
<g id="edge4" class="edge"><title>Post&#45;&gt;Reply</title>
<path fill="none" stroke="#5274b6" d="M254.892,-67.5007C261.079,-59.6262 268.113,-50.6748 274.438,-42.6244"/>
<ellipse fill="none" stroke="#5274b6" cx="252.405" cy="-70.6658" rx="4.00002" ry="4.00002"/>
<polygon fill="#5274b6" stroke="#5274b6" points="274.53,-42.5072 284.247,-37.4242 277.619,-38.5756 280.708,-34.644 280.708,-34.644 280.708,-34.644 277.619,-38.5756 277.17,-31.8638 274.53,-42.5072 274.53,-42.5072"/>
</g>
<!-- Tag -->
<g id="node6" class="node"><title>Tag</title>
<ellipse fill="none" stroke="black" cx="216" cy="-18" rx="27" ry="18"/>
<text text-anchor="middle" x="216" y="-14.3" font-family="Times,serif" font-size="14.00">Tag</text>
</g>
<!-- Post&#45;&gt;Tag -->
<g id="edge3" class="edge"><title>Post&#45;&gt;Tag</title>
<path fill="none" stroke="#5cc5e2" d="M229.648,-62.4259C227.892,-56.8374 226.04,-50.9442 224.286,-45.3635"/>
<polygon fill="#5cc5e2" stroke="#5cc5e2" points="229.676,-62.515 228.381,-73.4042 231.175,-67.285 232.674,-72.055 232.674,-72.055 232.674,-72.055 231.175,-67.285 236.967,-70.7057 229.676,-62.515 229.676,-62.515"/>
<polygon fill="#5cc5e2" stroke="#5cc5e2" points="224.275,-45.3289 225.57,-34.4397 222.776,-40.559 221.277,-35.789 221.277,-35.789 221.277,-35.789 222.776,-40.559 216.984,-37.1383 224.275,-45.3289 224.275,-45.3289"/>
</g>
<!-- Report -->
<g id="node4" class="node"><title>Report</title>
<ellipse fill="none" stroke="black" cx="266" cy="-255" rx="34.1708" ry="18"/>
<text text-anchor="middle" x="266" y="-251.3" font-family="Times,serif" font-size="14.00">Report</text>
</g>
<!-- Report&#45;&gt;User -->
<g id="edge6" class="edge"><title>Report&#45;&gt;User</title>
<path fill="none" stroke="#e71496" d="M273.386,-229.107C277.024,-216.844 281.414,-202.048 285.118,-189.566"/>
<ellipse fill="none" stroke="#e71496" cx="272.216" cy="-233.049" rx="4.00001" ry="4.00001"/>
<polygon fill="#e71496" stroke="#e71496" points="285.191,-189.319 292.35,-181.012 286.613,-184.526 288.036,-179.732 288.036,-179.732 288.036,-179.732 286.613,-184.526 283.721,-178.452 285.191,-189.319 285.191,-189.319"/>
</g>
<!-- Report&#45;&gt;Post -->
<g id="edge5" class="edge"><title>Report&#45;&gt;Post</title>
<path fill="none" stroke="#1c5377" d="M261.689,-228.901C256.529,-198.865 247.924,-148.774 242.628,-117.944"/>
<ellipse fill="none" stroke="#1c5377" cx="262.379" cy="-232.922" rx="4.00001" ry="4.00001"/>
<polygon fill="#1c5377" stroke="#1c5377" points="242.597,-117.762 245.339,-107.144 241.751,-112.834 240.904,-107.906 240.904,-107.906 240.904,-107.906 241.751,-112.834 236.469,-108.668 242.597,-117.762 242.597,-117.762"/>
</g>
</g>
</svg>
