<?xml version="1.0" encoding="UTF-8" standalone="no"?>
<!DOCTYPE svg PUBLIC "-//W3C//DTD SVG 1.1//EN"
 "http://www.w3.org/Graphics/SVG/1.1/DTD/svg11.dtd">
<!-- Generated by graphviz version 2.36.0 (20140111.2315)
 -->
<!-- Title: models_diagram Pages: 1 -->
<svg width="470pt" height="756pt"
 viewBox="0.00 0.00 470.00 756.00" xmlns="http://www.w3.org/2000/svg" xmlns:xlink="http://www.w3.org/1999/xlink">
<g id="graph0" class="graph" transform="scale(1 1) rotate(0) translate(4 752)">
<title>models_diagram</title>
<polygon fill="none" stroke="none" points="-4,4 -4,-752 466,-752 466,4 -4,4"/>
<!-- _diagram_info -->
<g id="node1" class="node"><title>_diagram_info</title>
<text text-anchor="start" x="8" y="-733.6" font-family="Times,serif" font-size="13.00">Models diagram</text>
<text text-anchor="start" x="8" y="-719.6" font-family="Times,serif" font-size="13.00">Date: Jun 21 2018 &#45; 13:07</text>
<text text-anchor="start" x="8" y="-705.6" font-family="Times,serif" font-size="13.00">Migration version: 20180614055730</text>
<text text-anchor="start" x="8" y="-691.6" font-family="Times,serif" font-size="13.00">Generated by RailRoady 1.5.3</text>
<text text-anchor="start" x="8" y="-677.6" font-family="Times,serif" font-size="13.00">http://railroady.prestonlee.com</text>
</g>
<!-- User -->
<g id="node2" class="node"><title>User</title>
<path fill="none" stroke="black" d="M274,-377C274,-377 450,-377 450,-377 456,-377 462,-383 462,-389 462,-389 462,-621 462,-621 462,-627 456,-633 450,-633 450,-633 274,-633 274,-633 268,-633 262,-627 262,-621 262,-621 262,-389 262,-389 262,-383 268,-377 274,-377"/>
<text text-anchor="middle" x="362" y="-617.8" font-family="Times,serif" font-size="14.00">User</text>
<polyline fill="none" stroke="black" points="262,-610 462,-610 "/>
<text text-anchor="start" x="270" y="-594.8" font-family="Times,serif" font-size="14.00">id :INTEGER</text>
<text text-anchor="start" x="270" y="-579.8" font-family="Times,serif" font-size="14.00">username :varchar</text>
<text text-anchor="start" x="270" y="-564.8" font-family="Times,serif" font-size="14.00">email :varchar</text>
<text text-anchor="start" x="270" y="-549.8" font-family="Times,serif" font-size="14.00">encrypted_password :varchar</text>
<text text-anchor="start" x="270" y="-534.8" font-family="Times,serif" font-size="14.00">report_id :integer</text>
<text text-anchor="start" x="270" y="-519.8" font-family="Times,serif" font-size="14.00">reset_password_token :varchar</text>
<text text-anchor="start" x="270" y="-504.8" font-family="Times,serif" font-size="14.00">reset_password_sent_at :datetime</text>
<text text-anchor="start" x="270" y="-489.8" font-family="Times,serif" font-size="14.00">remember_created_at :datetime</text>
<text text-anchor="start" x="270" y="-474.8" font-family="Times,serif" font-size="14.00">sign_in_count :integer</text>
<text text-anchor="start" x="270" y="-459.8" font-family="Times,serif" font-size="14.00">current_sign_in_at :datetime</text>
<text text-anchor="start" x="270" y="-444.8" font-family="Times,serif" font-size="14.00">last_sign_in_at :datetime</text>
<text text-anchor="start" x="270" y="-429.8" font-family="Times,serif" font-size="14.00">current_sign_in_ip :varchar</text>
<text text-anchor="start" x="270" y="-414.8" font-family="Times,serif" font-size="14.00">last_sign_in_ip :varchar</text>
<text text-anchor="start" x="270" y="-399.8" font-family="Times,serif" font-size="14.00">created_at :datetime</text>
<text text-anchor="start" x="270" y="-384.8" font-family="Times,serif" font-size="14.00">updated_at :datetime</text>
</g>
<!-- Post -->
<g id="node3" class="node"><title>Post</title>
<path fill="none" stroke="black" d="M205.5,-158.5C205.5,-158.5 312.5,-158.5 312.5,-158.5 318.5,-158.5 324.5,-164.5 324.5,-170.5 324.5,-170.5 324.5,-327.5 324.5,-327.5 324.5,-333.5 318.5,-339.5 312.5,-339.5 312.5,-339.5 205.5,-339.5 205.5,-339.5 199.5,-339.5 193.5,-333.5 193.5,-327.5 193.5,-327.5 193.5,-170.5 193.5,-170.5 193.5,-164.5 199.5,-158.5 205.5,-158.5"/>
<text text-anchor="middle" x="259" y="-324.3" font-family="Times,serif" font-size="14.00">Post</text>
<polyline fill="none" stroke="black" points="193.5,-316.5 324.5,-316.5 "/>
<text text-anchor="start" x="201.5" y="-301.3" font-family="Times,serif" font-size="14.00">id :INTEGER</text>
<text text-anchor="start" x="201.5" y="-286.3" font-family="Times,serif" font-size="14.00">title :varchar</text>
<text text-anchor="start" x="201.5" y="-271.3" font-family="Times,serif" font-size="14.00">content :varchar</text>
<text text-anchor="start" x="201.5" y="-256.3" font-family="Times,serif" font-size="14.00">image :varchar</text>
<text text-anchor="start" x="201.5" y="-241.3" font-family="Times,serif" font-size="14.00">user_id :integer</text>
<text text-anchor="start" x="201.5" y="-226.3" font-family="Times,serif" font-size="14.00">report_id :integer</text>
<text text-anchor="start" x="201.5" y="-211.3" font-family="Times,serif" font-size="14.00">category :varchar</text>
<text text-anchor="start" x="201.5" y="-196.3" font-family="Times,serif" font-size="14.00">finishDate :date</text>
<text text-anchor="start" x="201.5" y="-181.3" font-family="Times,serif" font-size="14.00">created_at :datetime</text>
<text text-anchor="start" x="201.5" y="-166.3" font-family="Times,serif" font-size="14.00">updated_at :datetime</text>
</g>
<!-- User&#45;&gt;Post -->
<g id="edge1" class="edge"><title>User&#45;&gt;Post</title>
<path fill="none" stroke="#91d33a" d="M307.262,-369.014C304.552,-362.333 301.855,-355.68 299.199,-349.132"/>
<ellipse fill="none" stroke="#91d33a" cx="308.846" cy="-372.921" rx="4.00001" ry="4.00001"/>
<polygon fill="#91d33a" stroke="#91d33a" points="299.1,-348.888 299.513,-337.93 297.222,-344.255 295.343,-339.621 295.343,-339.621 295.343,-339.621 297.222,-344.255 291.172,-341.312 299.1,-348.888 299.1,-348.888"/>
</g>
<!-- Reply -->
<g id="node5" class="node"><title>Reply</title>
<path fill="none" stroke="black" d="M308.5,-0.5C308.5,-0.5 415.5,-0.5 415.5,-0.5 421.5,-0.5 427.5,-6.5 427.5,-12.5 427.5,-12.5 427.5,-109.5 427.5,-109.5 427.5,-115.5 421.5,-121.5 415.5,-121.5 415.5,-121.5 308.5,-121.5 308.5,-121.5 302.5,-121.5 296.5,-115.5 296.5,-109.5 296.5,-109.5 296.5,-12.5 296.5,-12.5 296.5,-6.5 302.5,-0.5 308.5,-0.5"/>
<text text-anchor="middle" x="362" y="-106.3" font-family="Times,serif" font-size="14.00">Reply</text>
<polyline fill="none" stroke="black" points="296.5,-98.5 427.5,-98.5 "/>
<text text-anchor="start" x="304.5" y="-83.3" font-family="Times,serif" font-size="14.00">id :INTEGER</text>
<text text-anchor="start" x="304.5" y="-68.3" font-family="Times,serif" font-size="14.00">content :varchar</text>
<text text-anchor="start" x="304.5" y="-53.3" font-family="Times,serif" font-size="14.00">post_id :integer</text>
<text text-anchor="start" x="304.5" y="-38.3" font-family="Times,serif" font-size="14.00">user_id :integer</text>
<text text-anchor="start" x="304.5" y="-23.3" font-family="Times,serif" font-size="14.00">created_at :datetime</text>
<text text-anchor="start" x="304.5" y="-8.3" font-family="Times,serif" font-size="14.00">updated_at :datetime</text>
</g>
<!-- User&#45;&gt;Reply -->
<g id="edge2" class="edge"><title>User&#45;&gt;Reply</title>
<path fill="none" stroke="#bccccf" d="M362,-368.57C362,-290.403 362,-195.346 362,-132.003"/>
<ellipse fill="none" stroke="#bccccf" cx="362" cy="-372.748" rx="4" ry="4"/>
<polygon fill="#bccccf" stroke="#bccccf" points="362,-131.728 366.5,-121.728 362,-126.728 362,-121.728 362,-121.728 362,-121.728 362,-126.728 357.5,-121.728 362,-131.728 362,-131.728"/>
</g>
<!-- Post&#45;&gt;Reply -->
<g id="edge4" class="edge"><title>Post&#45;&gt;Reply</title>
<path fill="none" stroke="#d325b8" d="M312.569,-151.264C316.419,-144.312 320.253,-137.388 323.986,-130.647"/>
<ellipse fill="none" stroke="#d325b8" cx="310.628" cy="-154.77" rx="4.00002" ry="4.00002"/>
<polygon fill="#d325b8" stroke="#d325b8" points="324.161,-130.331 332.942,-123.763 326.583,-125.957 329.005,-121.583 329.005,-121.583 329.005,-121.583 326.583,-125.957 325.068,-119.403 324.161,-130.331 324.161,-130.331"/>
</g>
<!-- Tag -->
<g id="node6" class="node"><title>Tag</title>
<ellipse fill="none" stroke="black" cx="251" cy="-61" rx="27" ry="18"/>
<text text-anchor="middle" x="251" y="-57.3" font-family="Times,serif" font-size="14.00">Tag</text>
</g>
<!-- Post&#45;&gt;Tag -->
<g id="edge3" class="edge"><title>Post&#45;&gt;Tag</title>
<path fill="none" stroke="#524079" d="M254.701,-148.041C253.77,-126.398 252.861,-105.261 252.176,-89.3524"/>
<polygon fill="#524079" stroke="#524079" points="254.711,-148.278 250.645,-158.462 254.926,-153.274 255.141,-158.269 255.141,-158.269 255.141,-158.269 254.926,-153.274 259.636,-158.076 254.711,-148.278 254.711,-148.278"/>
<polygon fill="#524079" stroke="#524079" points="252.171,-89.2233 256.237,-79.0391 251.956,-84.2279 251.741,-79.2325 251.741,-79.2325 251.741,-79.2325 251.956,-84.2279 247.245,-79.426 252.171,-89.2233 252.171,-89.2233"/>
</g>
<!-- Report -->
<g id="node4" class="node"><title>Report</title>
<path fill="none" stroke="black" d="M244.5,-671C244.5,-671 351.5,-671 351.5,-671 357.5,-671 363.5,-677 363.5,-683 363.5,-683 363.5,-735 363.5,-735 363.5,-741 357.5,-747 351.5,-747 351.5,-747 244.5,-747 244.5,-747 238.5,-747 232.5,-741 232.5,-735 232.5,-735 232.5,-683 232.5,-683 232.5,-677 238.5,-671 244.5,-671"/>
<text text-anchor="middle" x="298" y="-731.8" font-family="Times,serif" font-size="14.00">Report</text>
<polyline fill="none" stroke="black" points="232.5,-724 363.5,-724 "/>
<text text-anchor="start" x="240.5" y="-708.8" font-family="Times,serif" font-size="14.00">id :INTEGER</text>
<text text-anchor="start" x="240.5" y="-693.8" font-family="Times,serif" font-size="14.00">created_at :datetime</text>
<text text-anchor="start" x="240.5" y="-678.8" font-family="Times,serif" font-size="14.00">updated_at :datetime</text>
</g>
<!-- Report&#45;&gt;User -->
<g id="edge6" class="edge"><title>Report&#45;&gt;User</title>
<path fill="none" stroke="#6486a2" d="M312.225,-663.103C314.231,-656.771 316.374,-650.008 318.601,-642.978"/>
<ellipse fill="none" stroke="#6486a2" cx="310.947" cy="-667.137" rx="4.00001" ry="4.00001"/>
<polygon fill="#6486a2" stroke="#6486a2" points="318.666,-642.773 325.976,-634.599 320.176,-638.007 321.686,-633.24 321.686,-633.24 321.686,-633.24 320.176,-638.007 317.396,-631.881 318.666,-642.773 318.666,-642.773"/>
</g>
<!-- Report&#45;&gt;Post -->
<g id="edge5" class="edge"><title>Report&#45;&gt;Post</title>
<path fill="none" stroke="#fa7ae6" d="M265.779,-663.674C260.508,-654.296 255.845,-644.153 253,-634 226.746,-540.298 232.377,-428.628 242.071,-349.933"/>
<ellipse fill="none" stroke="#fa7ae6" cx="267.878" cy="-667.236" rx="4.00002" ry="4.00002"/>
<polygon fill="#fa7ae6" stroke="#fa7ae6" points="242.132,-349.456 247.863,-340.107 242.765,-344.497 243.399,-339.537 243.399,-339.537 243.399,-339.537 242.765,-344.497 238.935,-338.967 242.132,-349.456 242.132,-349.456"/>
</g>
</g>
</svg>
